M48
; DRILL file {KiCad 5.1.4-e60b266~84~ubuntu18.04.1} date Mon 19 Aug 2019 13:29:50 BST
; FORMAT={-:-/ absolute / metric / decimal}
; #@! TF.CreationDate,2019-08-19T13:29:50+01:00
; #@! TF.GenerationSoftware,Kicad,Pcbnew,5.1.4-e60b266~84~ubuntu18.04.1
; #@! TF.FileFunction,Plated,1,2,PTH
FMAT,2
METRIC
T1C0.400
T2C0.700
T3C1.000
%
G90
G05
T1
X96.012Y-118.872
X100.965Y-112.268
X100.965Y-117.221
X100.965Y-118.618
X102.933Y-113.284
X102.934Y-117.475
X103.632Y-118.745
X104.394Y-115.443
X107.569Y-108.483
X107.569Y-112.268
X107.569Y-113.919
X107.569Y-115.57
X107.569Y-117.094
X107.569Y-118.618
X112.776Y-115.062
X114.046Y-115.062
X115.062Y-108.966
X115.316Y-115.062
X119.761Y-118.491
X120.015Y-115.951
X121.412Y-114.554
X121.412Y-120.142
X121.793Y-122.047
X121.92Y-117.348
X122.936Y-113.157
X123.19Y-118.618
X123.825Y-115.443
X124.46Y-120.269
X124.587Y-122.047
X125.476Y-113.157
X127.127Y-115.443
X127.889Y-113.157
X130.302Y-113.157
X130.302Y-115.443
X132.207Y-112.776
X132.207Y-115.824
T2
X93.98Y-104.14
X99.06Y-104.14
X96.52Y-106.68
T3
X91.948Y-124.714
X94.488Y-124.714
X84.836Y-112.776
X84.836Y-115.316
T0
M30
