G04 #@! TF.GenerationSoftware,KiCad,Pcbnew,5.1.4-e60b266~84~ubuntu18.04.1*
G04 #@! TF.CreationDate,2019-08-19T13:29:57+01:00*
G04 #@! TF.ProjectId,vctcxo-ref,76637463-786f-42d7-9265-662e6b696361,rev?*
G04 #@! TF.SameCoordinates,Original*
G04 #@! TF.FileFunction,Soldermask,Bot*
G04 #@! TF.FilePolarity,Negative*
%FSLAX46Y46*%
G04 Gerber Fmt 4.6, Leading zero omitted, Abs format (unit mm)*
G04 Created by KiCad (PCBNEW 5.1.4-e60b266~84~ubuntu18.04.1) date 2019-08-19 13:29:57*
%MOMM*%
%LPD*%
G04 APERTURE LIST*
%ADD10C,0.100000*%
G04 APERTURE END LIST*
D10*
G36*
X120066000Y-128281000D02*
G01*
X117564000Y-128281000D01*
X117564000Y-123179000D01*
X120066000Y-123179000D01*
X120066000Y-128281000D01*
X120066000Y-128281000D01*
G37*
G36*
X128816000Y-128281000D02*
G01*
X126314000Y-128281000D01*
X126314000Y-123179000D01*
X128816000Y-123179000D01*
X128816000Y-128281000D01*
X128816000Y-128281000D01*
G37*
G36*
X135016849Y-121327226D02*
G01*
X135538821Y-121431052D01*
X136112085Y-121668506D01*
X136628008Y-122013235D01*
X137066765Y-122451992D01*
X137411494Y-122967915D01*
X137648948Y-123541179D01*
X137770000Y-124149752D01*
X137770000Y-124770248D01*
X137648948Y-125378821D01*
X137411494Y-125952085D01*
X137066765Y-126468008D01*
X136628008Y-126906765D01*
X136112085Y-127251494D01*
X135538821Y-127488948D01*
X135016849Y-127592774D01*
X134930249Y-127610000D01*
X134309751Y-127610000D01*
X134223151Y-127592774D01*
X133701179Y-127488948D01*
X133127915Y-127251494D01*
X132611992Y-126906765D01*
X132173235Y-126468008D01*
X131828506Y-125952085D01*
X131591052Y-125378821D01*
X131470000Y-124770248D01*
X131470000Y-124149752D01*
X131591052Y-123541179D01*
X131828506Y-122967915D01*
X132173235Y-122451992D01*
X132611992Y-122013235D01*
X133127915Y-121668506D01*
X133701179Y-121431052D01*
X134223151Y-121327226D01*
X134309751Y-121310000D01*
X134930249Y-121310000D01*
X135016849Y-121327226D01*
X135016849Y-121327226D01*
G37*
G36*
X85486849Y-121327226D02*
G01*
X86008821Y-121431052D01*
X86582085Y-121668506D01*
X87098008Y-122013235D01*
X87536765Y-122451992D01*
X87881494Y-122967915D01*
X88118948Y-123541179D01*
X88240000Y-124149752D01*
X88240000Y-124770248D01*
X88118948Y-125378821D01*
X87881494Y-125952085D01*
X87536765Y-126468008D01*
X87098008Y-126906765D01*
X86582085Y-127251494D01*
X86008821Y-127488948D01*
X85486849Y-127592774D01*
X85400249Y-127610000D01*
X84779751Y-127610000D01*
X84693151Y-127592774D01*
X84171179Y-127488948D01*
X83597915Y-127251494D01*
X83081992Y-126906765D01*
X82643235Y-126468008D01*
X82298506Y-125952085D01*
X82061052Y-125378821D01*
X81940000Y-124770248D01*
X81940000Y-124149752D01*
X82061052Y-123541179D01*
X82298506Y-122967915D01*
X82643235Y-122451992D01*
X83081992Y-122013235D01*
X83597915Y-121668506D01*
X84171179Y-121431052D01*
X84693151Y-121327226D01*
X84779751Y-121310000D01*
X85400249Y-121310000D01*
X85486849Y-121327226D01*
X85486849Y-121327226D01*
G37*
G36*
X92949000Y-125715000D02*
G01*
X90947000Y-125715000D01*
X90947000Y-123713000D01*
X92949000Y-123713000D01*
X92949000Y-125715000D01*
X92949000Y-125715000D01*
G37*
G36*
X94779981Y-123751468D02*
G01*
X94962151Y-123826926D01*
X95126100Y-123936473D01*
X95265527Y-124075900D01*
X95375074Y-124239849D01*
X95450532Y-124422019D01*
X95489000Y-124615410D01*
X95489000Y-124812590D01*
X95450532Y-125005981D01*
X95375074Y-125188151D01*
X95265527Y-125352100D01*
X95126100Y-125491527D01*
X94962151Y-125601074D01*
X94779981Y-125676532D01*
X94586591Y-125715000D01*
X94389409Y-125715000D01*
X94196019Y-125676532D01*
X94013849Y-125601074D01*
X93849900Y-125491527D01*
X93710473Y-125352100D01*
X93600926Y-125188151D01*
X93525468Y-125005981D01*
X93487000Y-124812590D01*
X93487000Y-124615410D01*
X93525468Y-124422019D01*
X93600926Y-124239849D01*
X93710473Y-124075900D01*
X93849900Y-123936473D01*
X94013849Y-123826926D01*
X94196019Y-123751468D01*
X94389409Y-123713000D01*
X94586591Y-123713000D01*
X94779981Y-123751468D01*
X94779981Y-123751468D01*
G37*
G36*
X138441000Y-119926000D02*
G01*
X133339000Y-119926000D01*
X133339000Y-117424000D01*
X138441000Y-117424000D01*
X138441000Y-119926000D01*
X138441000Y-119926000D01*
G37*
G36*
X85127981Y-114353468D02*
G01*
X85310151Y-114428926D01*
X85474100Y-114538473D01*
X85613527Y-114677900D01*
X85723074Y-114841849D01*
X85798532Y-115024019D01*
X85837000Y-115217410D01*
X85837000Y-115414590D01*
X85798532Y-115607981D01*
X85723074Y-115790151D01*
X85613527Y-115954100D01*
X85474100Y-116093527D01*
X85310151Y-116203074D01*
X85127981Y-116278532D01*
X84934591Y-116317000D01*
X84737409Y-116317000D01*
X84544019Y-116278532D01*
X84361849Y-116203074D01*
X84197900Y-116093527D01*
X84058473Y-115954100D01*
X83948926Y-115790151D01*
X83873468Y-115607981D01*
X83835000Y-115414590D01*
X83835000Y-115217410D01*
X83873468Y-115024019D01*
X83948926Y-114841849D01*
X84058473Y-114677900D01*
X84197900Y-114538473D01*
X84361849Y-114428926D01*
X84544019Y-114353468D01*
X84737409Y-114315000D01*
X84934591Y-114315000D01*
X85127981Y-114353468D01*
X85127981Y-114353468D01*
G37*
G36*
X85837000Y-113777000D02*
G01*
X83835000Y-113777000D01*
X83835000Y-111775000D01*
X85837000Y-111775000D01*
X85837000Y-113777000D01*
X85837000Y-113777000D01*
G37*
G36*
X138441000Y-111176000D02*
G01*
X133339000Y-111176000D01*
X133339000Y-108674000D01*
X138441000Y-108674000D01*
X138441000Y-111176000D01*
X138441000Y-111176000D01*
G37*
G36*
X96753642Y-105909781D02*
G01*
X96899414Y-105970162D01*
X96899416Y-105970163D01*
X97030608Y-106057822D01*
X97142178Y-106169392D01*
X97171074Y-106212639D01*
X97229838Y-106300586D01*
X97290219Y-106446358D01*
X97321000Y-106601107D01*
X97321000Y-106758893D01*
X97290219Y-106913642D01*
X97282824Y-106931494D01*
X97229837Y-107059416D01*
X97142178Y-107190608D01*
X97030608Y-107302178D01*
X96899416Y-107389837D01*
X96899415Y-107389838D01*
X96899414Y-107389838D01*
X96753642Y-107450219D01*
X96598893Y-107481000D01*
X96441107Y-107481000D01*
X96286358Y-107450219D01*
X96140586Y-107389838D01*
X96140585Y-107389838D01*
X96140584Y-107389837D01*
X96009392Y-107302178D01*
X95897822Y-107190608D01*
X95810163Y-107059416D01*
X95757176Y-106931494D01*
X95749781Y-106913642D01*
X95719000Y-106758893D01*
X95719000Y-106601107D01*
X95749781Y-106446358D01*
X95810162Y-106300586D01*
X95868926Y-106212639D01*
X95897822Y-106169392D01*
X96009392Y-106057822D01*
X96140584Y-105970163D01*
X96140586Y-105970162D01*
X96286358Y-105909781D01*
X96441107Y-105879000D01*
X96598893Y-105879000D01*
X96753642Y-105909781D01*
X96753642Y-105909781D01*
G37*
G36*
X85486849Y-101007226D02*
G01*
X86008821Y-101111052D01*
X86582085Y-101348506D01*
X87098008Y-101693235D01*
X87536765Y-102131992D01*
X87881494Y-102647915D01*
X88118948Y-103221179D01*
X88240000Y-103829752D01*
X88240000Y-104450248D01*
X88118948Y-105058821D01*
X87881494Y-105632085D01*
X87536765Y-106148008D01*
X87098008Y-106586765D01*
X86582085Y-106931494D01*
X86008821Y-107168948D01*
X85486849Y-107272774D01*
X85400249Y-107290000D01*
X84779751Y-107290000D01*
X84693151Y-107272774D01*
X84171179Y-107168948D01*
X83597915Y-106931494D01*
X83081992Y-106586765D01*
X82643235Y-106148008D01*
X82298506Y-105632085D01*
X82061052Y-105058821D01*
X81940000Y-104450248D01*
X81940000Y-103829752D01*
X82061052Y-103221179D01*
X82298506Y-102647915D01*
X82643235Y-102131992D01*
X83081992Y-101693235D01*
X83597915Y-101348506D01*
X84171179Y-101111052D01*
X84693151Y-101007226D01*
X84779751Y-100990000D01*
X85400249Y-100990000D01*
X85486849Y-101007226D01*
X85486849Y-101007226D01*
G37*
G36*
X135016849Y-101007226D02*
G01*
X135538821Y-101111052D01*
X136112085Y-101348506D01*
X136628008Y-101693235D01*
X137066765Y-102131992D01*
X137411494Y-102647915D01*
X137648948Y-103221179D01*
X137770000Y-103829752D01*
X137770000Y-104450248D01*
X137648948Y-105058821D01*
X137411494Y-105632085D01*
X137066765Y-106148008D01*
X136628008Y-106586765D01*
X136112085Y-106931494D01*
X135538821Y-107168948D01*
X135016849Y-107272774D01*
X134930249Y-107290000D01*
X134309751Y-107290000D01*
X134223151Y-107272774D01*
X133701179Y-107168948D01*
X133127915Y-106931494D01*
X132611992Y-106586765D01*
X132173235Y-106148008D01*
X131828506Y-105632085D01*
X131591052Y-105058821D01*
X131470000Y-104450248D01*
X131470000Y-103829752D01*
X131591052Y-103221179D01*
X131828506Y-102647915D01*
X132173235Y-102131992D01*
X132611992Y-101693235D01*
X133127915Y-101348506D01*
X133701179Y-101111052D01*
X134223151Y-101007226D01*
X134309751Y-100990000D01*
X134930249Y-100990000D01*
X135016849Y-101007226D01*
X135016849Y-101007226D01*
G37*
G36*
X94213642Y-103369781D02*
G01*
X94359414Y-103430162D01*
X94359416Y-103430163D01*
X94490608Y-103517822D01*
X94602178Y-103629392D01*
X94689837Y-103760584D01*
X94689838Y-103760586D01*
X94750219Y-103906358D01*
X94781000Y-104061107D01*
X94781000Y-104218893D01*
X94750219Y-104373642D01*
X94689838Y-104519414D01*
X94689837Y-104519416D01*
X94602178Y-104650608D01*
X94490608Y-104762178D01*
X94359416Y-104849837D01*
X94359415Y-104849838D01*
X94359414Y-104849838D01*
X94213642Y-104910219D01*
X94058893Y-104941000D01*
X93901107Y-104941000D01*
X93746358Y-104910219D01*
X93600586Y-104849838D01*
X93600585Y-104849838D01*
X93600584Y-104849837D01*
X93469392Y-104762178D01*
X93357822Y-104650608D01*
X93270163Y-104519416D01*
X93270162Y-104519414D01*
X93209781Y-104373642D01*
X93179000Y-104218893D01*
X93179000Y-104061107D01*
X93209781Y-103906358D01*
X93270162Y-103760586D01*
X93270163Y-103760584D01*
X93357822Y-103629392D01*
X93469392Y-103517822D01*
X93600584Y-103430163D01*
X93600586Y-103430162D01*
X93746358Y-103369781D01*
X93901107Y-103339000D01*
X94058893Y-103339000D01*
X94213642Y-103369781D01*
X94213642Y-103369781D01*
G37*
G36*
X99293642Y-103369781D02*
G01*
X99439414Y-103430162D01*
X99439416Y-103430163D01*
X99570608Y-103517822D01*
X99682178Y-103629392D01*
X99769837Y-103760584D01*
X99769838Y-103760586D01*
X99830219Y-103906358D01*
X99861000Y-104061107D01*
X99861000Y-104218893D01*
X99830219Y-104373642D01*
X99769838Y-104519414D01*
X99769837Y-104519416D01*
X99682178Y-104650608D01*
X99570608Y-104762178D01*
X99439416Y-104849837D01*
X99439415Y-104849838D01*
X99439414Y-104849838D01*
X99293642Y-104910219D01*
X99138893Y-104941000D01*
X98981107Y-104941000D01*
X98826358Y-104910219D01*
X98680586Y-104849838D01*
X98680585Y-104849838D01*
X98680584Y-104849837D01*
X98549392Y-104762178D01*
X98437822Y-104650608D01*
X98350163Y-104519416D01*
X98350162Y-104519414D01*
X98289781Y-104373642D01*
X98259000Y-104218893D01*
X98259000Y-104061107D01*
X98289781Y-103906358D01*
X98350162Y-103760586D01*
X98350163Y-103760584D01*
X98437822Y-103629392D01*
X98549392Y-103517822D01*
X98680584Y-103430163D01*
X98680586Y-103430162D01*
X98826358Y-103369781D01*
X98981107Y-103339000D01*
X99138893Y-103339000D01*
X99293642Y-103369781D01*
X99293642Y-103369781D01*
G37*
M02*
