G04 #@! TF.GenerationSoftware,KiCad,Pcbnew,5.1.4-e60b266~84~ubuntu18.04.1*
G04 #@! TF.CreationDate,2019-08-19T13:29:57+01:00*
G04 #@! TF.ProjectId,vctcxo-ref,76637463-786f-42d7-9265-662e6b696361,rev?*
G04 #@! TF.SameCoordinates,Original*
G04 #@! TF.FileFunction,Profile,NP*
%FSLAX46Y46*%
G04 Gerber Fmt 4.6, Leading zero omitted, Abs format (unit mm)*
G04 Created by KiCad (PCBNEW 5.1.4-e60b266~84~ubuntu18.04.1) date 2019-08-19 13:29:57*
%MOMM*%
%LPD*%
G04 APERTURE LIST*
%ADD10C,0.050000*%
G04 APERTURE END LIST*
D10*
X110236000Y-112776000D02*
G75*
G02X110871000Y-112141000I635000J0D01*
G01*
X117221000Y-112141000D02*
G75*
G02X117856000Y-112776000I0J-635000D01*
G01*
X108966000Y-112141000D02*
G75*
G02X110236000Y-110871000I1270000J0D01*
G01*
X111760000Y-110871000D02*
G75*
G02X111760000Y-112141000I0J-635000D01*
G01*
X116332000Y-112141000D02*
G75*
G02X116332000Y-110871000I0J635000D01*
G01*
X117856000Y-110871000D02*
G75*
G02X119126000Y-112141000I0J-1270000D01*
G01*
X119126000Y-115824000D02*
G75*
G02X117856000Y-115824000I-635000J0D01*
G01*
X118364000Y-118237000D02*
G75*
G02X118364000Y-119507000I0J-635000D01*
G01*
X110871000Y-119507000D02*
G75*
G02X108966000Y-117602000I0J1905000D01*
G01*
X110871000Y-118237000D02*
G75*
G02X110236000Y-117602000I0J635000D01*
G01*
X110871000Y-119507000D02*
X118364000Y-119507000D01*
X108966000Y-112141000D02*
X108966000Y-117602000D01*
X111760000Y-110871000D02*
X110236000Y-110871000D01*
X117856000Y-110871000D02*
X116332000Y-110871000D01*
X119126000Y-115824000D02*
X119126000Y-112141000D01*
X117856000Y-112776000D02*
X117856000Y-115824000D01*
X116332000Y-112141000D02*
X117221000Y-112141000D01*
X110871000Y-112141000D02*
X111760000Y-112141000D01*
X110236000Y-117602000D02*
X110236000Y-112776000D01*
X118364000Y-118237000D02*
X110871000Y-118237000D01*
X81280000Y-104140000D02*
G75*
G02X85090000Y-100330000I3810000J0D01*
G01*
X85090000Y-128270000D02*
G75*
G02X81280000Y-124460000I0J3810000D01*
G01*
X138430000Y-124460000D02*
G75*
G02X134620000Y-128270000I-3810000J0D01*
G01*
X134620000Y-100330000D02*
G75*
G02X138430000Y-104140000I0J-3810000D01*
G01*
X138430000Y-104140000D02*
X138430000Y-124460000D01*
X85090000Y-100330000D02*
X134620000Y-100330000D01*
X81280000Y-124460000D02*
X81280000Y-104140000D01*
X134620000Y-128270000D02*
X85090000Y-128270000D01*
M02*
