M48
; DRILL file {KiCad 5.1.4-e60b266~84~ubuntu18.04.1} date Mon 19 Aug 2019 13:29:50 BST
; FORMAT={-:-/ absolute / metric / decimal}
; #@! TF.CreationDate,2019-08-19T13:29:50+01:00
; #@! TF.GenerationSoftware,Kicad,Pcbnew,5.1.4-e60b266~84~ubuntu18.04.1
; #@! TF.FileFunction,NonPlated,1,2,NPTH
FMAT,2
METRIC
T1C0.600
T2C3.300
%
G90
G05
T1
X132.12Y-124.46
X132.82Y-122.66
X132.82Y-126.26
X134.62Y-121.96
X134.62Y-126.96
X136.42Y-122.66
X136.42Y-126.26
X137.12Y-124.46
X132.12Y-104.14
X132.82Y-102.34
X132.82Y-105.94
X134.62Y-101.64
X134.62Y-106.64
X136.42Y-102.34
X136.42Y-105.94
X137.12Y-104.14
X82.59Y-124.46
X83.29Y-122.66
X83.29Y-126.26
X85.09Y-121.96
X85.09Y-126.96
X86.89Y-122.66
X86.89Y-126.26
X87.59Y-124.46
X82.59Y-104.14
X83.29Y-102.34
X83.29Y-105.94
X85.09Y-101.64
X85.09Y-106.64
X86.89Y-102.34
X86.89Y-105.94
X87.59Y-104.14
T2
X134.62Y-104.14
X85.09Y-124.46
X85.09Y-104.14
X134.62Y-124.46
T0
M30
