G04 #@! TF.GenerationSoftware,KiCad,Pcbnew,5.1.4-e60b266~84~ubuntu18.04.1*
G04 #@! TF.CreationDate,2019-08-20T22:32:04+01:00*
G04 #@! TF.ProjectId,vctcxo-ref,76637463-786f-42d7-9265-662e6b696361,rev?*
G04 #@! TF.SameCoordinates,Original*
G04 #@! TF.FileFunction,Legend,Top*
G04 #@! TF.FilePolarity,Positive*
%FSLAX46Y46*%
G04 Gerber Fmt 4.6, Leading zero omitted, Abs format (unit mm)*
G04 Created by KiCad (PCBNEW 5.1.4-e60b266~84~ubuntu18.04.1) date 2019-08-20 22:32:04*
%MOMM*%
%LPD*%
G04 APERTURE LIST*
%ADD10C,0.200000*%
%ADD11C,0.300000*%
%ADD12C,0.250000*%
%ADD13C,0.120000*%
%ADD14C,0.400000*%
%ADD15C,0.150000*%
G04 APERTURE END LIST*
D10*
X91472380Y-109291428D02*
X91520000Y-109243809D01*
X91615238Y-109196190D01*
X91805714Y-109291428D01*
X91900952Y-109243809D01*
X91948571Y-109196190D01*
X92520000Y-108672380D02*
X92615238Y-108672380D01*
X92710476Y-108720000D01*
X92758095Y-108767619D01*
X92805714Y-108862857D01*
X92853333Y-109053333D01*
X92853333Y-109291428D01*
X92805714Y-109481904D01*
X92758095Y-109577142D01*
X92710476Y-109624761D01*
X92615238Y-109672380D01*
X92520000Y-109672380D01*
X92424761Y-109624761D01*
X92377142Y-109577142D01*
X92329523Y-109481904D01*
X92281904Y-109291428D01*
X92281904Y-109053333D01*
X92329523Y-108862857D01*
X92377142Y-108767619D01*
X92424761Y-108720000D01*
X92520000Y-108672380D01*
X93281904Y-109577142D02*
X93329523Y-109624761D01*
X93281904Y-109672380D01*
X93234285Y-109624761D01*
X93281904Y-109577142D01*
X93281904Y-109672380D01*
X94281904Y-109672380D02*
X93710476Y-109672380D01*
X93996190Y-109672380D02*
X93996190Y-108672380D01*
X93900952Y-108815238D01*
X93805714Y-108910476D01*
X93710476Y-108958095D01*
X94710476Y-109005714D02*
X94710476Y-110005714D01*
X94710476Y-109053333D02*
X94805714Y-109005714D01*
X94996190Y-109005714D01*
X95091428Y-109053333D01*
X95139047Y-109100952D01*
X95186666Y-109196190D01*
X95186666Y-109481904D01*
X95139047Y-109577142D01*
X95091428Y-109624761D01*
X94996190Y-109672380D01*
X94805714Y-109672380D01*
X94710476Y-109624761D01*
X95615238Y-109005714D02*
X95615238Y-110005714D01*
X95615238Y-109053333D02*
X95710476Y-109005714D01*
X95900952Y-109005714D01*
X95996190Y-109053333D01*
X96043809Y-109100952D01*
X96091428Y-109196190D01*
X96091428Y-109481904D01*
X96043809Y-109577142D01*
X95996190Y-109624761D01*
X95900952Y-109672380D01*
X95710476Y-109672380D01*
X95615238Y-109624761D01*
X96520000Y-109672380D02*
X96520000Y-109005714D01*
X96520000Y-109100952D02*
X96567619Y-109053333D01*
X96662857Y-109005714D01*
X96805714Y-109005714D01*
X96900952Y-109053333D01*
X96948571Y-109148571D01*
X96948571Y-109672380D01*
X96948571Y-109148571D02*
X96996190Y-109053333D01*
X97091428Y-109005714D01*
X97234285Y-109005714D01*
X97329523Y-109053333D01*
X97377142Y-109148571D01*
X97377142Y-109672380D01*
X98567619Y-108624761D02*
X97710476Y-109910476D01*
X98758095Y-109005714D02*
X99139047Y-109005714D01*
X98900952Y-108672380D02*
X98900952Y-109529523D01*
X98948571Y-109624761D01*
X99043809Y-109672380D01*
X99139047Y-109672380D01*
X99900952Y-109005714D02*
X99900952Y-109672380D01*
X99472380Y-109005714D02*
X99472380Y-109529523D01*
X99520000Y-109624761D01*
X99615238Y-109672380D01*
X99758095Y-109672380D01*
X99853333Y-109624761D01*
X99900952Y-109577142D01*
X100377142Y-109672380D02*
X100377142Y-109005714D01*
X100377142Y-109196190D02*
X100424761Y-109100952D01*
X100472380Y-109053333D01*
X100567619Y-109005714D01*
X100662857Y-109005714D01*
X100996190Y-109005714D02*
X100996190Y-109672380D01*
X100996190Y-109100952D02*
X101043809Y-109053333D01*
X101139047Y-109005714D01*
X101281904Y-109005714D01*
X101377142Y-109053333D01*
X101424761Y-109148571D01*
X101424761Y-109672380D01*
D11*
X81978571Y-112819642D02*
X83121428Y-112819642D01*
X82550000Y-113391071D02*
X82550000Y-112248214D01*
X91376571Y-126980142D02*
X92519428Y-126980142D01*
X91948000Y-127551571D02*
X91948000Y-126408714D01*
X82947571Y-118304571D02*
X83876142Y-118304571D01*
X83376142Y-118876000D01*
X83590428Y-118876000D01*
X83733285Y-118947428D01*
X83804714Y-119018857D01*
X83876142Y-119161714D01*
X83876142Y-119518857D01*
X83804714Y-119661714D01*
X83733285Y-119733142D01*
X83590428Y-119804571D01*
X83161857Y-119804571D01*
X83019000Y-119733142D01*
X82947571Y-119661714D01*
X84519000Y-119661714D02*
X84590428Y-119733142D01*
X84519000Y-119804571D01*
X84447571Y-119733142D01*
X84519000Y-119661714D01*
X84519000Y-119804571D01*
X85876142Y-118304571D02*
X85590428Y-118304571D01*
X85447571Y-118376000D01*
X85376142Y-118447428D01*
X85233285Y-118661714D01*
X85161857Y-118947428D01*
X85161857Y-119518857D01*
X85233285Y-119661714D01*
X85304714Y-119733142D01*
X85447571Y-119804571D01*
X85733285Y-119804571D01*
X85876142Y-119733142D01*
X85947571Y-119661714D01*
X86019000Y-119518857D01*
X86019000Y-119161714D01*
X85947571Y-119018857D01*
X85876142Y-118947428D01*
X85733285Y-118876000D01*
X85447571Y-118876000D01*
X85304714Y-118947428D01*
X85233285Y-119018857D01*
X85161857Y-119161714D01*
X86447571Y-118304571D02*
X86947571Y-119804571D01*
X87447571Y-118304571D01*
X87947571Y-119233142D02*
X89090428Y-119233142D01*
X90447571Y-118304571D02*
X90161857Y-118304571D01*
X90019000Y-118376000D01*
X89947571Y-118447428D01*
X89804714Y-118661714D01*
X89733285Y-118947428D01*
X89733285Y-119518857D01*
X89804714Y-119661714D01*
X89876142Y-119733142D01*
X90019000Y-119804571D01*
X90304714Y-119804571D01*
X90447571Y-119733142D01*
X90519000Y-119661714D01*
X90590428Y-119518857D01*
X90590428Y-119161714D01*
X90519000Y-119018857D01*
X90447571Y-118947428D01*
X90304714Y-118876000D01*
X90019000Y-118876000D01*
X89876142Y-118947428D01*
X89804714Y-119018857D01*
X89733285Y-119161714D01*
X91233285Y-119661714D02*
X91304714Y-119733142D01*
X91233285Y-119804571D01*
X91161857Y-119733142D01*
X91233285Y-119661714D01*
X91233285Y-119804571D01*
X92661857Y-118304571D02*
X91947571Y-118304571D01*
X91876142Y-119018857D01*
X91947571Y-118947428D01*
X92090428Y-118876000D01*
X92447571Y-118876000D01*
X92590428Y-118947428D01*
X92661857Y-119018857D01*
X92733285Y-119161714D01*
X92733285Y-119518857D01*
X92661857Y-119661714D01*
X92590428Y-119733142D01*
X92447571Y-119804571D01*
X92090428Y-119804571D01*
X91947571Y-119733142D01*
X91876142Y-119661714D01*
X93161857Y-118304571D02*
X93661857Y-119804571D01*
X94161857Y-118304571D01*
X109391214Y-120963571D02*
X109391214Y-121963571D01*
X109034071Y-120392142D02*
X108676928Y-121463571D01*
X109605500Y-121463571D01*
X110462642Y-120463571D02*
X110605500Y-120463571D01*
X110748357Y-120535000D01*
X110819785Y-120606428D01*
X110891214Y-120749285D01*
X110962642Y-121035000D01*
X110962642Y-121392142D01*
X110891214Y-121677857D01*
X110819785Y-121820714D01*
X110748357Y-121892142D01*
X110605500Y-121963571D01*
X110462642Y-121963571D01*
X110319785Y-121892142D01*
X110248357Y-121820714D01*
X110176928Y-121677857D01*
X110105500Y-121392142D01*
X110105500Y-121035000D01*
X110176928Y-120749285D01*
X110248357Y-120606428D01*
X110319785Y-120535000D01*
X110462642Y-120463571D01*
X111605500Y-121820714D02*
X111676928Y-121892142D01*
X111605500Y-121963571D01*
X111534071Y-121892142D01*
X111605500Y-121820714D01*
X111605500Y-121963571D01*
X112605500Y-120463571D02*
X112748357Y-120463571D01*
X112891214Y-120535000D01*
X112962642Y-120606428D01*
X113034071Y-120749285D01*
X113105500Y-121035000D01*
X113105500Y-121392142D01*
X113034071Y-121677857D01*
X112962642Y-121820714D01*
X112891214Y-121892142D01*
X112748357Y-121963571D01*
X112605500Y-121963571D01*
X112462642Y-121892142D01*
X112391214Y-121820714D01*
X112319785Y-121677857D01*
X112248357Y-121392142D01*
X112248357Y-121035000D01*
X112319785Y-120749285D01*
X112391214Y-120606428D01*
X112462642Y-120535000D01*
X112605500Y-120463571D01*
X114034071Y-120463571D02*
X114176928Y-120463571D01*
X114319785Y-120535000D01*
X114391214Y-120606428D01*
X114462642Y-120749285D01*
X114534071Y-121035000D01*
X114534071Y-121392142D01*
X114462642Y-121677857D01*
X114391214Y-121820714D01*
X114319785Y-121892142D01*
X114176928Y-121963571D01*
X114034071Y-121963571D01*
X113891214Y-121892142D01*
X113819785Y-121820714D01*
X113748357Y-121677857D01*
X113676928Y-121392142D01*
X113676928Y-121035000D01*
X113748357Y-120749285D01*
X113819785Y-120606428D01*
X113891214Y-120535000D01*
X114034071Y-120463571D01*
X115176928Y-121963571D02*
X115176928Y-120463571D01*
X115676928Y-121535000D01*
X116176928Y-120463571D01*
X116176928Y-121963571D01*
X116891214Y-121963571D02*
X116891214Y-120463571D01*
X116891214Y-121177857D02*
X117748357Y-121177857D01*
X117748357Y-121963571D02*
X117748357Y-120463571D01*
X118319785Y-120963571D02*
X119105500Y-120963571D01*
X118319785Y-121963571D01*
X119105500Y-121963571D01*
D10*
X123473571Y-106433880D02*
X123473571Y-105767214D01*
X123473571Y-105957690D02*
X123521190Y-105862452D01*
X123568809Y-105814833D01*
X123664047Y-105767214D01*
X123759285Y-105767214D01*
X124045000Y-105529119D02*
X124092619Y-105481500D01*
X124187857Y-105433880D01*
X124425952Y-105433880D01*
X124521190Y-105481500D01*
X124568809Y-105529119D01*
X124616428Y-105624357D01*
X124616428Y-105719595D01*
X124568809Y-105862452D01*
X123997380Y-106433880D01*
X124616428Y-106433880D01*
X125235476Y-105433880D02*
X125330714Y-105433880D01*
X125425952Y-105481500D01*
X125473571Y-105529119D01*
X125521190Y-105624357D01*
X125568809Y-105814833D01*
X125568809Y-106052928D01*
X125521190Y-106243404D01*
X125473571Y-106338642D01*
X125425952Y-106386261D01*
X125330714Y-106433880D01*
X125235476Y-106433880D01*
X125140238Y-106386261D01*
X125092619Y-106338642D01*
X125045000Y-106243404D01*
X124997380Y-106052928D01*
X124997380Y-105814833D01*
X125045000Y-105624357D01*
X125092619Y-105529119D01*
X125140238Y-105481500D01*
X125235476Y-105433880D01*
X126521190Y-106433880D02*
X125949761Y-106433880D01*
X126235476Y-106433880D02*
X126235476Y-105433880D01*
X126140238Y-105576738D01*
X126045000Y-105671976D01*
X125949761Y-105719595D01*
X126997380Y-106433880D02*
X127187857Y-106433880D01*
X127283095Y-106386261D01*
X127330714Y-106338642D01*
X127425952Y-106195785D01*
X127473571Y-106005309D01*
X127473571Y-105624357D01*
X127425952Y-105529119D01*
X127378333Y-105481500D01*
X127283095Y-105433880D01*
X127092619Y-105433880D01*
X126997380Y-105481500D01*
X126949761Y-105529119D01*
X126902142Y-105624357D01*
X126902142Y-105862452D01*
X126949761Y-105957690D01*
X126997380Y-106005309D01*
X127092619Y-106052928D01*
X127283095Y-106052928D01*
X127378333Y-106005309D01*
X127425952Y-105957690D01*
X127473571Y-105862452D01*
X127902142Y-106338642D02*
X127949761Y-106386261D01*
X127902142Y-106433880D01*
X127854523Y-106386261D01*
X127902142Y-106338642D01*
X127902142Y-106433880D01*
X128568809Y-105433880D02*
X128664047Y-105433880D01*
X128759285Y-105481500D01*
X128806904Y-105529119D01*
X128854523Y-105624357D01*
X128902142Y-105814833D01*
X128902142Y-106052928D01*
X128854523Y-106243404D01*
X128806904Y-106338642D01*
X128759285Y-106386261D01*
X128664047Y-106433880D01*
X128568809Y-106433880D01*
X128473571Y-106386261D01*
X128425952Y-106338642D01*
X128378333Y-106243404D01*
X128330714Y-106052928D01*
X128330714Y-105814833D01*
X128378333Y-105624357D01*
X128425952Y-105529119D01*
X128473571Y-105481500D01*
X128568809Y-105433880D01*
X129473571Y-105862452D02*
X129378333Y-105814833D01*
X129330714Y-105767214D01*
X129283095Y-105671976D01*
X129283095Y-105624357D01*
X129330714Y-105529119D01*
X129378333Y-105481500D01*
X129473571Y-105433880D01*
X129664047Y-105433880D01*
X129759285Y-105481500D01*
X129806904Y-105529119D01*
X129854523Y-105624357D01*
X129854523Y-105671976D01*
X129806904Y-105767214D01*
X129759285Y-105814833D01*
X129664047Y-105862452D01*
X129473571Y-105862452D01*
X129378333Y-105910071D01*
X129330714Y-105957690D01*
X129283095Y-106052928D01*
X129283095Y-106243404D01*
X129330714Y-106338642D01*
X129378333Y-106386261D01*
X129473571Y-106433880D01*
X129664047Y-106433880D01*
X129759285Y-106386261D01*
X129806904Y-106338642D01*
X129854523Y-106243404D01*
X129854523Y-106052928D01*
X129806904Y-105957690D01*
X129759285Y-105910071D01*
X129664047Y-105862452D01*
D12*
X117120196Y-109644571D02*
X117307696Y-108144571D01*
X117879125Y-108144571D01*
X118013053Y-108216000D01*
X118075553Y-108287428D01*
X118129125Y-108430285D01*
X118102339Y-108644571D01*
X118013053Y-108787428D01*
X117932696Y-108858857D01*
X117780910Y-108930285D01*
X117209482Y-108930285D01*
X118620196Y-109644571D02*
X118807696Y-108144571D01*
X119263053Y-109644571D02*
X119361267Y-108858857D01*
X119307696Y-108716000D01*
X119173767Y-108644571D01*
X118959482Y-108644571D01*
X118807696Y-108716000D01*
X118727339Y-108787428D01*
X119977339Y-109644571D02*
X120102339Y-108644571D01*
X120164839Y-108144571D02*
X120084482Y-108216000D01*
X120146982Y-108287428D01*
X120227339Y-108216000D01*
X120164839Y-108144571D01*
X120146982Y-108287428D01*
X120905910Y-109644571D02*
X120771982Y-109573142D01*
X120718410Y-109430285D01*
X120879125Y-108144571D01*
X122620196Y-109644571D02*
X122807696Y-108144571D01*
X123173767Y-109216000D01*
X123807696Y-108144571D01*
X123620196Y-109644571D01*
X124807696Y-108144571D02*
X124950553Y-108144571D01*
X125084482Y-108216000D01*
X125146982Y-108287428D01*
X125200553Y-108430285D01*
X125236267Y-108716000D01*
X125191625Y-109073142D01*
X125084482Y-109358857D01*
X124995196Y-109501714D01*
X124914839Y-109573142D01*
X124763053Y-109644571D01*
X124620196Y-109644571D01*
X124486267Y-109573142D01*
X124423767Y-109501714D01*
X124370196Y-109358857D01*
X124334482Y-109073142D01*
X124379125Y-108716000D01*
X124486267Y-108430285D01*
X124575553Y-108287428D01*
X124655910Y-108216000D01*
X124807696Y-108144571D01*
X125763053Y-109644571D02*
X125950553Y-108144571D01*
X126307696Y-108144571D01*
X126513053Y-108216000D01*
X126638053Y-108358857D01*
X126691625Y-108501714D01*
X126727339Y-108787428D01*
X126700553Y-109001714D01*
X126593410Y-109287428D01*
X126504125Y-109430285D01*
X126343410Y-109573142D01*
X126120196Y-109644571D01*
X125763053Y-109644571D01*
X127263053Y-109644571D02*
X127450553Y-108144571D01*
X128120196Y-109644571D01*
X128307696Y-108144571D01*
X129209482Y-108930285D02*
X129120196Y-109644571D01*
X128807696Y-108144571D02*
X129209482Y-108930285D01*
X129807696Y-108144571D01*
D13*
X101600000Y-102870000D02*
X91440000Y-102870000D01*
X101600000Y-107950000D02*
X101600000Y-102870000D01*
X91440000Y-107950000D02*
X101600000Y-107950000D01*
X91440000Y-102870000D02*
X91440000Y-107950000D01*
D14*
X112010238Y-103838261D02*
X111057857Y-103838261D01*
X111057857Y-101838261D01*
X112676904Y-103838261D02*
X112676904Y-102504928D01*
X112676904Y-101838261D02*
X112581666Y-101933500D01*
X112676904Y-102028738D01*
X112772142Y-101933500D01*
X112676904Y-101838261D01*
X112676904Y-102028738D01*
X113629285Y-103838261D02*
X113629285Y-102504928D01*
X113629285Y-102695404D02*
X113724523Y-102600166D01*
X113915000Y-102504928D01*
X114200714Y-102504928D01*
X114391190Y-102600166D01*
X114486428Y-102790642D01*
X114486428Y-103838261D01*
X114486428Y-102790642D02*
X114581666Y-102600166D01*
X114772142Y-102504928D01*
X115057857Y-102504928D01*
X115248333Y-102600166D01*
X115343571Y-102790642D01*
X115343571Y-103838261D01*
X117057857Y-103743023D02*
X116867380Y-103838261D01*
X116486428Y-103838261D01*
X116295952Y-103743023D01*
X116200714Y-103552547D01*
X116200714Y-102790642D01*
X116295952Y-102600166D01*
X116486428Y-102504928D01*
X116867380Y-102504928D01*
X117057857Y-102600166D01*
X117153095Y-102790642D01*
X117153095Y-102981119D01*
X116200714Y-103171595D01*
X119153095Y-103838261D02*
X118486428Y-102885880D01*
X118010238Y-103838261D02*
X118010238Y-101838261D01*
X118772142Y-101838261D01*
X118962619Y-101933500D01*
X119057857Y-102028738D01*
X119153095Y-102219214D01*
X119153095Y-102504928D01*
X119057857Y-102695404D01*
X118962619Y-102790642D01*
X118772142Y-102885880D01*
X118010238Y-102885880D01*
X120772142Y-103743023D02*
X120581666Y-103838261D01*
X120200714Y-103838261D01*
X120010238Y-103743023D01*
X119915000Y-103552547D01*
X119915000Y-102790642D01*
X120010238Y-102600166D01*
X120200714Y-102504928D01*
X120581666Y-102504928D01*
X120772142Y-102600166D01*
X120867380Y-102790642D01*
X120867380Y-102981119D01*
X119915000Y-103171595D01*
X121438809Y-102504928D02*
X122200714Y-102504928D01*
X121724523Y-103838261D02*
X121724523Y-102123976D01*
X121819761Y-101933500D01*
X122010238Y-101838261D01*
X122200714Y-101838261D01*
X124391190Y-103838261D02*
X124391190Y-101838261D01*
X125057857Y-103266833D01*
X125724523Y-101838261D01*
X125724523Y-103838261D01*
X126676904Y-103838261D02*
X126676904Y-102504928D01*
X126676904Y-101838261D02*
X126581666Y-101933500D01*
X126676904Y-102028738D01*
X126772142Y-101933500D01*
X126676904Y-101838261D01*
X126676904Y-102028738D01*
X127629285Y-102504928D02*
X127629285Y-103838261D01*
X127629285Y-102695404D02*
X127724523Y-102600166D01*
X127915000Y-102504928D01*
X128200714Y-102504928D01*
X128391190Y-102600166D01*
X128486428Y-102790642D01*
X128486428Y-103838261D01*
X129438809Y-103838261D02*
X129438809Y-102504928D01*
X129438809Y-101838261D02*
X129343571Y-101933500D01*
X129438809Y-102028738D01*
X129534047Y-101933500D01*
X129438809Y-101838261D01*
X129438809Y-102028738D01*
D15*
X114346000Y-113289000D02*
X114346000Y-113289000D01*
X114346000Y-113289000D02*
X114346000Y-117089000D01*
X114346000Y-117089000D02*
X113746000Y-117089000D01*
X113746000Y-117089000D02*
X113746000Y-113889000D01*
X113746000Y-113889000D02*
X114346000Y-113289000D01*
X101480500Y-114683000D02*
X101480500Y-114933000D01*
X101480500Y-114933000D02*
X100830500Y-114933000D01*
X100830500Y-114933000D02*
X100830500Y-114683000D01*
X100830500Y-114683000D02*
X101480500Y-114683000D01*
X105094500Y-113228000D02*
X105094500Y-112578000D01*
X105344500Y-113228000D02*
X105094500Y-113228000D01*
X105344500Y-112578000D02*
X105344500Y-113228000D01*
X105094500Y-112578000D02*
X105344500Y-112578000D01*
X116642000Y-114615500D02*
X116642000Y-114365500D01*
X116642000Y-114365500D02*
X117292000Y-114365500D01*
X117292000Y-114365500D02*
X117292000Y-114615500D01*
X117292000Y-114615500D02*
X116642000Y-114615500D01*
X110800000Y-115826000D02*
X111450000Y-115826000D01*
X110800000Y-116076000D02*
X110800000Y-115826000D01*
X111450000Y-116076000D02*
X110800000Y-116076000D01*
X111450000Y-115826000D02*
X111450000Y-116076000D01*
X104580500Y-114493000D02*
X104580500Y-114493000D01*
X104580500Y-114493000D02*
X104580500Y-116393000D01*
X104580500Y-116393000D02*
X104080500Y-116393000D01*
X104080500Y-116393000D02*
X104080500Y-114993000D01*
X104080500Y-114993000D02*
X104580500Y-114493000D01*
X90678000Y-121539000D02*
X95758000Y-121539000D01*
X95758000Y-121539000D02*
X95758000Y-127889000D01*
X95758000Y-127889000D02*
X90678000Y-127889000D01*
X90678000Y-127889000D02*
X90678000Y-121539000D01*
X90678000Y-123539000D02*
X95758000Y-123539000D01*
X132018500Y-114625000D02*
X132018500Y-113975000D01*
X132268500Y-114625000D02*
X132018500Y-114625000D01*
X132268500Y-113975000D02*
X132268500Y-114625000D01*
X132018500Y-113975000D02*
X132268500Y-113975000D01*
X123515000Y-121858500D02*
X123515000Y-122108500D01*
X123515000Y-122108500D02*
X122865000Y-122108500D01*
X122865000Y-122108500D02*
X122865000Y-121858500D01*
X122865000Y-121858500D02*
X123515000Y-121858500D01*
X88011000Y-111506000D02*
X88011000Y-116586000D01*
X88011000Y-116586000D02*
X81661000Y-116586000D01*
X81661000Y-116586000D02*
X81661000Y-111506000D01*
X81661000Y-111506000D02*
X88011000Y-111506000D01*
X86011000Y-111506000D02*
X86011000Y-116586000D01*
D13*
X94930000Y-104140000D02*
G75*
G03X94930000Y-104140000I-950000J0D01*
G01*
X97470000Y-106680000D02*
G75*
G03X97470000Y-106680000I-950000J0D01*
G01*
X100010000Y-104140000D02*
G75*
G03X100010000Y-104140000I-950000J0D01*
G01*
D15*
X104773000Y-101529000D02*
X104773000Y-102179000D01*
X104523000Y-101529000D02*
X104773000Y-101529000D01*
X104523000Y-102179000D02*
X104523000Y-101529000D01*
X104773000Y-102179000D02*
X104523000Y-102179000D01*
X104523000Y-103815000D02*
X104773000Y-103815000D01*
X104773000Y-103815000D02*
X104773000Y-104465000D01*
X104773000Y-104465000D02*
X104523000Y-104465000D01*
X104523000Y-104465000D02*
X104523000Y-103815000D01*
X96337000Y-116461000D02*
X96337000Y-116711000D01*
X96337000Y-116711000D02*
X95687000Y-116711000D01*
X95687000Y-116711000D02*
X95687000Y-116461000D01*
X95687000Y-116461000D02*
X96337000Y-116461000D01*
X99893000Y-114933000D02*
X99243000Y-114933000D01*
X99893000Y-114683000D02*
X99893000Y-114933000D01*
X99243000Y-114683000D02*
X99893000Y-114683000D01*
X99243000Y-114933000D02*
X99243000Y-114683000D01*
X97153000Y-113467000D02*
X97153000Y-114117000D01*
X96903000Y-113467000D02*
X97153000Y-113467000D01*
X96903000Y-114117000D02*
X96903000Y-113467000D01*
X97153000Y-114117000D02*
X96903000Y-114117000D01*
X98115000Y-116461000D02*
X98115000Y-116711000D01*
X98115000Y-116711000D02*
X97465000Y-116711000D01*
X97465000Y-116711000D02*
X97465000Y-116461000D01*
X97465000Y-116461000D02*
X98115000Y-116461000D01*
X113569809Y-111715190D02*
X113569809Y-112191380D01*
X113236476Y-111191380D02*
X113569809Y-111715190D01*
X113903142Y-111191380D01*
X114760285Y-112191380D02*
X114188857Y-112191380D01*
X114474571Y-112191380D02*
X114474571Y-111191380D01*
X114379333Y-111334238D01*
X114284095Y-111429476D01*
X114188857Y-111477095D01*
X101703142Y-117387666D02*
X101750761Y-117435285D01*
X101798380Y-117578142D01*
X101798380Y-117673380D01*
X101750761Y-117816238D01*
X101655523Y-117911476D01*
X101560285Y-117959095D01*
X101369809Y-118006714D01*
X101226952Y-118006714D01*
X101036476Y-117959095D01*
X100941238Y-117911476D01*
X100846000Y-117816238D01*
X100798380Y-117673380D01*
X100798380Y-117578142D01*
X100846000Y-117435285D01*
X100893619Y-117387666D01*
X101798380Y-116435285D02*
X101798380Y-117006714D01*
X101798380Y-116721000D02*
X100798380Y-116721000D01*
X100941238Y-116816238D01*
X101036476Y-116911476D01*
X101084095Y-117006714D01*
X105116333Y-119483142D02*
X105068714Y-119530761D01*
X104925857Y-119578380D01*
X104830619Y-119578380D01*
X104687761Y-119530761D01*
X104592523Y-119435523D01*
X104544904Y-119340285D01*
X104497285Y-119149809D01*
X104497285Y-119006952D01*
X104544904Y-118816476D01*
X104592523Y-118721238D01*
X104687761Y-118626000D01*
X104830619Y-118578380D01*
X104925857Y-118578380D01*
X105068714Y-118626000D01*
X105116333Y-118673619D01*
X105497285Y-118673619D02*
X105544904Y-118626000D01*
X105640142Y-118578380D01*
X105878238Y-118578380D01*
X105973476Y-118626000D01*
X106021095Y-118673619D01*
X106068714Y-118768857D01*
X106068714Y-118864095D01*
X106021095Y-119006952D01*
X105449666Y-119578380D01*
X106068714Y-119578380D01*
X104989333Y-111863142D02*
X104941714Y-111910761D01*
X104798857Y-111958380D01*
X104703619Y-111958380D01*
X104560761Y-111910761D01*
X104465523Y-111815523D01*
X104417904Y-111720285D01*
X104370285Y-111529809D01*
X104370285Y-111386952D01*
X104417904Y-111196476D01*
X104465523Y-111101238D01*
X104560761Y-111006000D01*
X104703619Y-110958380D01*
X104798857Y-110958380D01*
X104941714Y-111006000D01*
X104989333Y-111053619D01*
X105322666Y-110958380D02*
X105941714Y-110958380D01*
X105608380Y-111339333D01*
X105751238Y-111339333D01*
X105846476Y-111386952D01*
X105894095Y-111434571D01*
X105941714Y-111529809D01*
X105941714Y-111767904D01*
X105894095Y-111863142D01*
X105846476Y-111910761D01*
X105751238Y-111958380D01*
X105465523Y-111958380D01*
X105370285Y-111910761D01*
X105322666Y-111863142D01*
X117387642Y-117324166D02*
X117435261Y-117371785D01*
X117482880Y-117514642D01*
X117482880Y-117609880D01*
X117435261Y-117752738D01*
X117340023Y-117847976D01*
X117244785Y-117895595D01*
X117054309Y-117943214D01*
X116911452Y-117943214D01*
X116720976Y-117895595D01*
X116625738Y-117847976D01*
X116530500Y-117752738D01*
X116482880Y-117609880D01*
X116482880Y-117514642D01*
X116530500Y-117371785D01*
X116578119Y-117324166D01*
X116816214Y-116467023D02*
X117482880Y-116467023D01*
X116435261Y-116705119D02*
X117149547Y-116943214D01*
X117149547Y-116324166D01*
X111609142Y-113641166D02*
X111656761Y-113688785D01*
X111704380Y-113831642D01*
X111704380Y-113926880D01*
X111656761Y-114069738D01*
X111561523Y-114164976D01*
X111466285Y-114212595D01*
X111275809Y-114260214D01*
X111132952Y-114260214D01*
X110942476Y-114212595D01*
X110847238Y-114164976D01*
X110752000Y-114069738D01*
X110704380Y-113926880D01*
X110704380Y-113831642D01*
X110752000Y-113688785D01*
X110799619Y-113641166D01*
X110704380Y-112736404D02*
X110704380Y-113212595D01*
X111180571Y-113260214D01*
X111132952Y-113212595D01*
X111085333Y-113117357D01*
X111085333Y-112879261D01*
X111132952Y-112784023D01*
X111180571Y-112736404D01*
X111275809Y-112688785D01*
X111513904Y-112688785D01*
X111609142Y-112736404D01*
X111656761Y-112784023D01*
X111704380Y-112879261D01*
X111704380Y-113117357D01*
X111656761Y-113212595D01*
X111609142Y-113260214D01*
X106719809Y-116022380D02*
X106719809Y-115022380D01*
X107767428Y-115927142D02*
X107719809Y-115974761D01*
X107576952Y-116022380D01*
X107481714Y-116022380D01*
X107338857Y-115974761D01*
X107243619Y-115879523D01*
X107196000Y-115784285D01*
X107148380Y-115593809D01*
X107148380Y-115450952D01*
X107196000Y-115260476D01*
X107243619Y-115165238D01*
X107338857Y-115070000D01*
X107481714Y-115022380D01*
X107576952Y-115022380D01*
X107719809Y-115070000D01*
X107767428Y-115117619D01*
X108719809Y-116022380D02*
X108148380Y-116022380D01*
X108434095Y-116022380D02*
X108434095Y-115022380D01*
X108338857Y-115165238D01*
X108243619Y-115260476D01*
X108148380Y-115308095D01*
X89074666Y-126833380D02*
X89074666Y-127547666D01*
X89027047Y-127690523D01*
X88931809Y-127785761D01*
X88788952Y-127833380D01*
X88693714Y-127833380D01*
X90074666Y-127833380D02*
X89503238Y-127833380D01*
X89788952Y-127833380D02*
X89788952Y-126833380D01*
X89693714Y-126976238D01*
X89598476Y-127071476D01*
X89503238Y-127119095D01*
X127531904Y-122626380D02*
X127531904Y-121626380D01*
X127912857Y-121626380D01*
X128008095Y-121674000D01*
X128055714Y-121721619D01*
X128103333Y-121816857D01*
X128103333Y-121959714D01*
X128055714Y-122054952D01*
X128008095Y-122102571D01*
X127912857Y-122150190D01*
X127531904Y-122150190D01*
X129055714Y-122626380D02*
X128484285Y-122626380D01*
X128770000Y-122626380D02*
X128770000Y-121626380D01*
X128674761Y-121769238D01*
X128579523Y-121864476D01*
X128484285Y-121912095D01*
X131976833Y-113387142D02*
X131929214Y-113434761D01*
X131786357Y-113482380D01*
X131691119Y-113482380D01*
X131548261Y-113434761D01*
X131453023Y-113339523D01*
X131405404Y-113244285D01*
X131357785Y-113053809D01*
X131357785Y-112910952D01*
X131405404Y-112720476D01*
X131453023Y-112625238D01*
X131548261Y-112530000D01*
X131691119Y-112482380D01*
X131786357Y-112482380D01*
X131929214Y-112530000D01*
X131976833Y-112577619D01*
X132833976Y-112482380D02*
X132643500Y-112482380D01*
X132548261Y-112530000D01*
X132500642Y-112577619D01*
X132405404Y-112720476D01*
X132357785Y-112910952D01*
X132357785Y-113291904D01*
X132405404Y-113387142D01*
X132453023Y-113434761D01*
X132548261Y-113482380D01*
X132738738Y-113482380D01*
X132833976Y-113434761D01*
X132881595Y-113387142D01*
X132929214Y-113291904D01*
X132929214Y-113053809D01*
X132881595Y-112958571D01*
X132833976Y-112910952D01*
X132738738Y-112863333D01*
X132548261Y-112863333D01*
X132453023Y-112910952D01*
X132405404Y-112958571D01*
X132357785Y-113053809D01*
X122277142Y-122150166D02*
X122324761Y-122197785D01*
X122372380Y-122340642D01*
X122372380Y-122435880D01*
X122324761Y-122578738D01*
X122229523Y-122673976D01*
X122134285Y-122721595D01*
X121943809Y-122769214D01*
X121800952Y-122769214D01*
X121610476Y-122721595D01*
X121515238Y-122673976D01*
X121420000Y-122578738D01*
X121372380Y-122435880D01*
X121372380Y-122340642D01*
X121420000Y-122197785D01*
X121467619Y-122150166D01*
X121372380Y-121816833D02*
X121372380Y-121150166D01*
X122372380Y-121578738D01*
X131341904Y-109672380D02*
X131341904Y-108672380D01*
X131722857Y-108672380D01*
X131818095Y-108720000D01*
X131865714Y-108767619D01*
X131913333Y-108862857D01*
X131913333Y-109005714D01*
X131865714Y-109100952D01*
X131818095Y-109148571D01*
X131722857Y-109196190D01*
X131341904Y-109196190D01*
X132294285Y-108767619D02*
X132341904Y-108720000D01*
X132437142Y-108672380D01*
X132675238Y-108672380D01*
X132770476Y-108720000D01*
X132818095Y-108767619D01*
X132865714Y-108862857D01*
X132865714Y-108958095D01*
X132818095Y-109100952D01*
X132246666Y-109672380D01*
X132865714Y-109672380D01*
X82089666Y-109942380D02*
X82089666Y-110656666D01*
X82042047Y-110799523D01*
X81946809Y-110894761D01*
X81803952Y-110942380D01*
X81708714Y-110942380D01*
X82518238Y-110037619D02*
X82565857Y-109990000D01*
X82661095Y-109942380D01*
X82899190Y-109942380D01*
X82994428Y-109990000D01*
X83042047Y-110037619D01*
X83089666Y-110132857D01*
X83089666Y-110228095D01*
X83042047Y-110370952D01*
X82470619Y-110942380D01*
X83089666Y-110942380D01*
X107021333Y-102306380D02*
X106688000Y-101830190D01*
X106449904Y-102306380D02*
X106449904Y-101306380D01*
X106830857Y-101306380D01*
X106926095Y-101354000D01*
X106973714Y-101401619D01*
X107021333Y-101496857D01*
X107021333Y-101639714D01*
X106973714Y-101734952D01*
X106926095Y-101782571D01*
X106830857Y-101830190D01*
X106449904Y-101830190D01*
X107973714Y-102306380D02*
X107402285Y-102306380D01*
X107688000Y-102306380D02*
X107688000Y-101306380D01*
X107592761Y-101449238D01*
X107497523Y-101544476D01*
X107402285Y-101592095D01*
X107021333Y-104592380D02*
X106688000Y-104116190D01*
X106449904Y-104592380D02*
X106449904Y-103592380D01*
X106830857Y-103592380D01*
X106926095Y-103640000D01*
X106973714Y-103687619D01*
X107021333Y-103782857D01*
X107021333Y-103925714D01*
X106973714Y-104020952D01*
X106926095Y-104068571D01*
X106830857Y-104116190D01*
X106449904Y-104116190D01*
X107402285Y-103687619D02*
X107449904Y-103640000D01*
X107545142Y-103592380D01*
X107783238Y-103592380D01*
X107878476Y-103640000D01*
X107926095Y-103687619D01*
X107973714Y-103782857D01*
X107973714Y-103878095D01*
X107926095Y-104020952D01*
X107354666Y-104592380D01*
X107973714Y-104592380D01*
X94972142Y-116752666D02*
X95019761Y-116800285D01*
X95067380Y-116943142D01*
X95067380Y-117038380D01*
X95019761Y-117181238D01*
X94924523Y-117276476D01*
X94829285Y-117324095D01*
X94638809Y-117371714D01*
X94495952Y-117371714D01*
X94305476Y-117324095D01*
X94210238Y-117276476D01*
X94115000Y-117181238D01*
X94067380Y-117038380D01*
X94067380Y-116943142D01*
X94115000Y-116800285D01*
X94162619Y-116752666D01*
X94495952Y-116181238D02*
X94448333Y-116276476D01*
X94400714Y-116324095D01*
X94305476Y-116371714D01*
X94257857Y-116371714D01*
X94162619Y-116324095D01*
X94115000Y-116276476D01*
X94067380Y-116181238D01*
X94067380Y-115990761D01*
X94115000Y-115895523D01*
X94162619Y-115847904D01*
X94257857Y-115800285D01*
X94305476Y-115800285D01*
X94400714Y-115847904D01*
X94448333Y-115895523D01*
X94495952Y-115990761D01*
X94495952Y-116181238D01*
X94543571Y-116276476D01*
X94591190Y-116324095D01*
X94686428Y-116371714D01*
X94876904Y-116371714D01*
X94972142Y-116324095D01*
X95019761Y-116276476D01*
X95067380Y-116181238D01*
X95067380Y-115990761D01*
X95019761Y-115895523D01*
X94972142Y-115847904D01*
X94876904Y-115800285D01*
X94686428Y-115800285D01*
X94591190Y-115847904D01*
X94543571Y-115895523D01*
X94495952Y-115990761D01*
X99925142Y-117387666D02*
X99972761Y-117435285D01*
X100020380Y-117578142D01*
X100020380Y-117673380D01*
X99972761Y-117816238D01*
X99877523Y-117911476D01*
X99782285Y-117959095D01*
X99591809Y-118006714D01*
X99448952Y-118006714D01*
X99258476Y-117959095D01*
X99163238Y-117911476D01*
X99068000Y-117816238D01*
X99020380Y-117673380D01*
X99020380Y-117578142D01*
X99068000Y-117435285D01*
X99115619Y-117387666D01*
X100020380Y-116911476D02*
X100020380Y-116721000D01*
X99972761Y-116625761D01*
X99925142Y-116578142D01*
X99782285Y-116482904D01*
X99591809Y-116435285D01*
X99210857Y-116435285D01*
X99115619Y-116482904D01*
X99068000Y-116530523D01*
X99020380Y-116625761D01*
X99020380Y-116816238D01*
X99068000Y-116911476D01*
X99115619Y-116959095D01*
X99210857Y-117006714D01*
X99448952Y-117006714D01*
X99544190Y-116959095D01*
X99591809Y-116911476D01*
X99639428Y-116816238D01*
X99639428Y-116625761D01*
X99591809Y-116530523D01*
X99544190Y-116482904D01*
X99448952Y-116435285D01*
X96194666Y-112196571D02*
X95861333Y-112196571D01*
X95861333Y-112720380D02*
X95861333Y-111720380D01*
X96337523Y-111720380D01*
X97051809Y-112196571D02*
X97194666Y-112244190D01*
X97242285Y-112291809D01*
X97289904Y-112387047D01*
X97289904Y-112529904D01*
X97242285Y-112625142D01*
X97194666Y-112672761D01*
X97099428Y-112720380D01*
X96718476Y-112720380D01*
X96718476Y-111720380D01*
X97051809Y-111720380D01*
X97147047Y-111768000D01*
X97194666Y-111815619D01*
X97242285Y-111910857D01*
X97242285Y-112006095D01*
X97194666Y-112101333D01*
X97147047Y-112148952D01*
X97051809Y-112196571D01*
X96718476Y-112196571D01*
X98242285Y-112720380D02*
X97670857Y-112720380D01*
X97956571Y-112720380D02*
X97956571Y-111720380D01*
X97861333Y-111863238D01*
X97766095Y-111958476D01*
X97670857Y-112006095D01*
X97718571Y-120340333D02*
X97718571Y-120673666D01*
X98242380Y-120673666D02*
X97242380Y-120673666D01*
X97242380Y-120197476D01*
X97718571Y-119483190D02*
X97766190Y-119340333D01*
X97813809Y-119292714D01*
X97909047Y-119245095D01*
X98051904Y-119245095D01*
X98147142Y-119292714D01*
X98194761Y-119340333D01*
X98242380Y-119435571D01*
X98242380Y-119816523D01*
X97242380Y-119816523D01*
X97242380Y-119483190D01*
X97290000Y-119387952D01*
X97337619Y-119340333D01*
X97432857Y-119292714D01*
X97528095Y-119292714D01*
X97623333Y-119340333D01*
X97670952Y-119387952D01*
X97718571Y-119483190D01*
X97718571Y-119816523D01*
X97337619Y-118864142D02*
X97290000Y-118816523D01*
X97242380Y-118721285D01*
X97242380Y-118483190D01*
X97290000Y-118387952D01*
X97337619Y-118340333D01*
X97432857Y-118292714D01*
X97528095Y-118292714D01*
X97670952Y-118340333D01*
X98242380Y-118911761D01*
X98242380Y-118292714D01*
M02*
