M48
; DRILL file {KiCad 5.1.4-e60b266~84~ubuntu18.04.1} date Tue 20 Aug 2019 22:32:00 BST
; FORMAT={-:-/ absolute / inch / decimal}
; #@! TF.CreationDate,2019-08-20T22:32:00+01:00
; #@! TF.GenerationSoftware,Kicad,Pcbnew,5.1.4-e60b266~84~ubuntu18.04.1
; #@! TF.FileFunction,NonPlated,1,2,NPTH
FMAT,2
INCH
T1C0.0236
T2C0.1299
%
G90
G05
T1
X3.2516Y-4.9
X3.2791Y-4.8291
X3.2791Y-4.9709
X3.35Y-4.8016
X3.35Y-4.9984
X3.4209Y-4.8291
X3.4209Y-4.9709
X3.4484Y-4.9
X5.2016Y-4.9
X5.2291Y-4.8291
X5.2291Y-4.9709
X5.3Y-4.8016
X5.3Y-4.9984
X5.3709Y-4.8291
X5.3709Y-4.9709
X5.3984Y-4.9
X3.2516Y-4.1
X3.2791Y-4.0291
X3.2791Y-4.1709
X3.35Y-4.0016
X3.35Y-4.1984
X3.4209Y-4.0291
X3.4209Y-4.1709
X3.4484Y-4.1
X5.2016Y-4.1
X5.2291Y-4.0291
X5.2291Y-4.1709
X5.3Y-4.0016
X5.3Y-4.1984
X5.3709Y-4.0291
X5.3709Y-4.1709
X5.3984Y-4.1
T2
X3.35Y-4.9
X5.3Y-4.9
X3.35Y-4.1
X5.3Y-4.1
T0
M30
