G04 #@! TF.GenerationSoftware,KiCad,Pcbnew,5.1.4-e60b266~84~ubuntu18.04.1*
G04 #@! TF.CreationDate,2019-08-20T22:32:04+01:00*
G04 #@! TF.ProjectId,vctcxo-ref,76637463-786f-42d7-9265-662e6b696361,rev?*
G04 #@! TF.SameCoordinates,Original*
G04 #@! TF.FileFunction,Copper,L2,Bot*
G04 #@! TF.FilePolarity,Positive*
%FSLAX46Y46*%
G04 Gerber Fmt 4.6, Leading zero omitted, Abs format (unit mm)*
G04 Created by KiCad (PCBNEW 5.1.4-e60b266~84~ubuntu18.04.1) date 2019-08-20 22:32:04*
%MOMM*%
%LPD*%
G04 APERTURE LIST*
%ADD10R,1.900000X1.900000*%
%ADD11C,1.900000*%
%ADD12R,2.400000X5.000000*%
%ADD13R,5.000000X2.400000*%
%ADD14C,1.500000*%
%ADD15C,0.800000*%
%ADD16C,0.750000*%
%ADD17C,0.254000*%
G04 APERTURE END LIST*
D10*
X91948000Y-124714000D03*
D11*
X94488000Y-124714000D03*
D12*
X118815000Y-125730000D03*
X127565000Y-125730000D03*
D13*
X135890000Y-118675000D03*
X135890000Y-109925000D03*
D10*
X84836000Y-112776000D03*
D11*
X84836000Y-115316000D03*
D14*
X93980000Y-104140000D03*
X96520000Y-106680000D03*
X99060000Y-104140000D03*
D15*
X107569000Y-115570000D03*
X107569000Y-118618000D03*
X114046000Y-115062000D03*
X103632000Y-118745000D03*
X107569000Y-113919000D03*
X107569000Y-117094000D03*
X104394000Y-115443000D03*
X100965000Y-118618000D03*
X100965000Y-112268000D03*
X121920000Y-117348000D03*
X119761000Y-118491000D03*
X123825000Y-115443000D03*
X127127000Y-115443000D03*
X130302000Y-115443000D03*
X132207000Y-115824000D03*
X132207000Y-112776000D03*
X130302000Y-113157000D03*
X127889000Y-113157000D03*
X125476000Y-113157000D03*
X122936000Y-113157000D03*
X120015000Y-115951000D03*
X121412000Y-114554000D03*
X123190000Y-118618000D03*
X124460000Y-120269000D03*
X124587000Y-122047000D03*
X121793000Y-122047000D03*
X121412000Y-120142000D03*
X115316000Y-115062000D03*
X107569000Y-112268000D03*
X112776000Y-115062000D03*
X100965000Y-117221000D03*
X115062000Y-108965990D03*
X107569000Y-108483402D03*
X102933500Y-113284014D03*
X102933506Y-117475000D03*
X96012000Y-118872000D03*
D16*
X134590000Y-109925000D02*
X135890000Y-109925000D01*
X114046000Y-109982000D02*
X114046000Y-115062000D01*
X107569000Y-112649000D02*
X107886500Y-112966500D01*
X106045000Y-109982000D02*
X114046000Y-109982000D01*
X106045000Y-109982000D02*
X106045000Y-111887000D01*
X115062000Y-108965990D02*
X114579412Y-108483402D01*
X108134685Y-108483402D02*
X107569000Y-108483402D01*
X114579412Y-108483402D02*
X108134685Y-108483402D01*
X102933500Y-117474994D02*
X102933506Y-117475000D01*
X102933500Y-113284014D02*
X102933500Y-117474994D01*
X94488000Y-124714000D02*
X94488000Y-120396000D01*
X94488000Y-120396000D02*
X96012000Y-118872000D01*
X84836000Y-116659502D02*
X87048498Y-118872000D01*
X87048498Y-118872000D02*
X96012000Y-118872000D01*
X84836000Y-115316000D02*
X84836000Y-116659502D01*
X96012000Y-118872000D02*
X96012000Y-118872000D01*
D17*
G36*
X107794325Y-111774040D02*
G01*
X107885951Y-111811993D01*
X107964632Y-111872368D01*
X108025007Y-111951049D01*
X108062960Y-112042675D01*
X108077000Y-112149321D01*
X108077000Y-118736679D01*
X108062960Y-118843325D01*
X108025007Y-118934951D01*
X107964632Y-119013632D01*
X107885951Y-119074007D01*
X107794325Y-119111960D01*
X107687679Y-119126000D01*
X100846321Y-119126000D01*
X100739675Y-119111960D01*
X100648049Y-119074007D01*
X100569368Y-119013632D01*
X100508993Y-118934951D01*
X100471040Y-118843325D01*
X100457000Y-118736679D01*
X100457000Y-113182075D01*
X101898500Y-113182075D01*
X101898500Y-113385953D01*
X101923500Y-113511638D01*
X101923501Y-117247402D01*
X101898506Y-117373061D01*
X101898506Y-117576939D01*
X101938280Y-117776898D01*
X102016301Y-117965256D01*
X102129569Y-118134774D01*
X102273732Y-118278937D01*
X102443250Y-118392205D01*
X102631608Y-118470226D01*
X102831567Y-118510000D01*
X103035445Y-118510000D01*
X103235404Y-118470226D01*
X103423762Y-118392205D01*
X103593280Y-118278937D01*
X103737443Y-118134774D01*
X103850711Y-117965256D01*
X103928732Y-117776898D01*
X103968506Y-117576939D01*
X103968506Y-117373061D01*
X103943500Y-117247346D01*
X103943500Y-113511637D01*
X103968500Y-113385953D01*
X103968500Y-113182075D01*
X103928726Y-112982116D01*
X103850705Y-112793758D01*
X103737437Y-112624240D01*
X103593274Y-112480077D01*
X103423756Y-112366809D01*
X103235398Y-112288788D01*
X103035439Y-112249014D01*
X102831561Y-112249014D01*
X102631602Y-112288788D01*
X102443244Y-112366809D01*
X102273726Y-112480077D01*
X102129563Y-112624240D01*
X102016295Y-112793758D01*
X101938274Y-112982116D01*
X101898500Y-113182075D01*
X100457000Y-113182075D01*
X100457000Y-112149321D01*
X100471040Y-112042675D01*
X100508993Y-111951049D01*
X100569368Y-111872368D01*
X100648049Y-111811993D01*
X100739675Y-111774040D01*
X100846321Y-111760000D01*
X107687679Y-111760000D01*
X107794325Y-111774040D01*
X107794325Y-111774040D01*
G37*
X107794325Y-111774040D02*
X107885951Y-111811993D01*
X107964632Y-111872368D01*
X108025007Y-111951049D01*
X108062960Y-112042675D01*
X108077000Y-112149321D01*
X108077000Y-118736679D01*
X108062960Y-118843325D01*
X108025007Y-118934951D01*
X107964632Y-119013632D01*
X107885951Y-119074007D01*
X107794325Y-119111960D01*
X107687679Y-119126000D01*
X100846321Y-119126000D01*
X100739675Y-119111960D01*
X100648049Y-119074007D01*
X100569368Y-119013632D01*
X100508993Y-118934951D01*
X100471040Y-118843325D01*
X100457000Y-118736679D01*
X100457000Y-113182075D01*
X101898500Y-113182075D01*
X101898500Y-113385953D01*
X101923500Y-113511638D01*
X101923501Y-117247402D01*
X101898506Y-117373061D01*
X101898506Y-117576939D01*
X101938280Y-117776898D01*
X102016301Y-117965256D01*
X102129569Y-118134774D01*
X102273732Y-118278937D01*
X102443250Y-118392205D01*
X102631608Y-118470226D01*
X102831567Y-118510000D01*
X103035445Y-118510000D01*
X103235404Y-118470226D01*
X103423762Y-118392205D01*
X103593280Y-118278937D01*
X103737443Y-118134774D01*
X103850711Y-117965256D01*
X103928732Y-117776898D01*
X103968506Y-117576939D01*
X103968506Y-117373061D01*
X103943500Y-117247346D01*
X103943500Y-113511637D01*
X103968500Y-113385953D01*
X103968500Y-113182075D01*
X103928726Y-112982116D01*
X103850705Y-112793758D01*
X103737437Y-112624240D01*
X103593274Y-112480077D01*
X103423756Y-112366809D01*
X103235398Y-112288788D01*
X103035439Y-112249014D01*
X102831561Y-112249014D01*
X102631602Y-112288788D01*
X102443244Y-112366809D01*
X102273726Y-112480077D01*
X102129563Y-112624240D01*
X102016295Y-112793758D01*
X101938274Y-112982116D01*
X101898500Y-113182075D01*
X100457000Y-113182075D01*
X100457000Y-112149321D01*
X100471040Y-112042675D01*
X100508993Y-111951049D01*
X100569368Y-111872368D01*
X100648049Y-111811993D01*
X100739675Y-111774040D01*
X100846321Y-111760000D01*
X107687679Y-111760000D01*
X107794325Y-111774040D01*
G36*
X137770001Y-120015000D02*
G01*
X133418765Y-120015000D01*
X133306182Y-119999319D01*
X133210302Y-119957055D01*
X133129622Y-119890199D01*
X133065246Y-119796512D01*
X131572000Y-116810019D01*
X131563079Y-116794891D01*
X131483703Y-116679375D01*
X131460065Y-116653510D01*
X131352143Y-116564080D01*
X131322336Y-116545658D01*
X131194084Y-116489124D01*
X131160378Y-116479549D01*
X131021559Y-116460214D01*
X131004039Y-116459000D01*
X124416420Y-116459000D01*
X124399843Y-116460087D01*
X124268363Y-116477397D01*
X124236340Y-116485977D01*
X124113820Y-116536726D01*
X124085107Y-116553303D01*
X123979897Y-116634034D01*
X123967407Y-116644987D01*
X123756987Y-116855407D01*
X123746034Y-116867897D01*
X123665303Y-116973107D01*
X123648726Y-117001820D01*
X123597977Y-117124340D01*
X123589397Y-117156363D01*
X123572087Y-117287843D01*
X123571000Y-117304420D01*
X123571000Y-117391580D01*
X123572087Y-117408157D01*
X123589397Y-117539637D01*
X123597977Y-117571660D01*
X123648726Y-117694180D01*
X123665303Y-117722893D01*
X123746034Y-117828103D01*
X123756987Y-117840593D01*
X125231523Y-119315129D01*
X125297007Y-119400469D01*
X125334960Y-119492095D01*
X125349000Y-119598741D01*
X125349000Y-120844039D01*
X125350214Y-120861559D01*
X125369549Y-121000378D01*
X125379124Y-121034084D01*
X125435658Y-121162336D01*
X125454080Y-121192143D01*
X125543510Y-121300065D01*
X125569375Y-121323703D01*
X125684891Y-121403079D01*
X125700019Y-121412000D01*
X128686512Y-122905246D01*
X128780199Y-122969622D01*
X128847055Y-123050302D01*
X128889319Y-123146182D01*
X128905000Y-123258765D01*
X128905000Y-127610000D01*
X117475000Y-127610000D01*
X117475000Y-123258765D01*
X117490681Y-123146182D01*
X117532945Y-123050302D01*
X117599801Y-122969622D01*
X117693488Y-122905246D01*
X120225611Y-121639184D01*
X120240738Y-121630264D01*
X120334194Y-121566048D01*
X120360061Y-121542408D01*
X120432410Y-121455097D01*
X120450831Y-121425291D01*
X120496568Y-121321533D01*
X120506143Y-121287827D01*
X120521786Y-121175520D01*
X120523000Y-121158000D01*
X120523000Y-121114420D01*
X120521913Y-121097843D01*
X120504603Y-120966363D01*
X120496023Y-120934340D01*
X120445274Y-120811820D01*
X120428697Y-120783107D01*
X120347966Y-120677897D01*
X120337013Y-120665407D01*
X119370477Y-119698871D01*
X119363874Y-119690266D01*
X119409708Y-119633262D01*
X119442471Y-119583194D01*
X119475913Y-119533616D01*
X119480239Y-119525480D01*
X119537656Y-119415652D01*
X119560074Y-119360164D01*
X119583247Y-119305039D01*
X119585910Y-119296217D01*
X119620900Y-119177329D01*
X119632107Y-119118578D01*
X119644136Y-119059981D01*
X119645035Y-119050809D01*
X119656268Y-118927389D01*
X119655851Y-118867606D01*
X119656269Y-118807745D01*
X119655369Y-118798574D01*
X119642414Y-118675323D01*
X119630387Y-118616733D01*
X119619178Y-118557971D01*
X119616514Y-118549149D01*
X119579867Y-118430762D01*
X119556692Y-118375632D01*
X119534278Y-118320153D01*
X119529951Y-118312017D01*
X119471007Y-118203002D01*
X119437565Y-118153422D01*
X119404803Y-118103355D01*
X119398978Y-118096214D01*
X119319982Y-118000724D01*
X119277566Y-117958603D01*
X119235684Y-117915834D01*
X119228584Y-117909961D01*
X119132545Y-117831633D01*
X119082703Y-117798518D01*
X119033362Y-117764733D01*
X119025256Y-117760350D01*
X118915832Y-117702168D01*
X118860554Y-117679384D01*
X118805545Y-117655807D01*
X118796741Y-117653082D01*
X118678101Y-117617262D01*
X118619372Y-117605633D01*
X118560905Y-117593206D01*
X118551747Y-117592244D01*
X118551744Y-117592243D01*
X118551741Y-117592243D01*
X118428402Y-117580150D01*
X118396419Y-117577000D01*
X112141000Y-117577000D01*
X112141000Y-115070321D01*
X112155040Y-114963675D01*
X112192993Y-114872049D01*
X112253368Y-114793368D01*
X112332049Y-114732993D01*
X112423675Y-114695040D01*
X112530321Y-114681000D01*
X117196001Y-114681000D01*
X117196001Y-115856419D01*
X117199211Y-115889012D01*
X117199211Y-115897269D01*
X117200175Y-115906433D01*
X117213989Y-116029591D01*
X117226418Y-116088065D01*
X117238045Y-116146786D01*
X117240771Y-116155589D01*
X117278244Y-116273718D01*
X117301793Y-116328662D01*
X117324604Y-116384005D01*
X117328987Y-116392111D01*
X117388691Y-116500711D01*
X117422468Y-116550041D01*
X117455590Y-116599894D01*
X117461464Y-116606995D01*
X117541125Y-116701930D01*
X117583838Y-116743757D01*
X117626013Y-116786228D01*
X117633155Y-116792052D01*
X117729738Y-116869708D01*
X117779806Y-116902471D01*
X117829384Y-116935913D01*
X117837520Y-116940239D01*
X117947348Y-116997656D01*
X118002836Y-117020074D01*
X118057961Y-117043247D01*
X118066777Y-117045908D01*
X118066779Y-117045909D01*
X118066781Y-117045909D01*
X118066783Y-117045910D01*
X118185671Y-117080900D01*
X118244422Y-117092107D01*
X118303019Y-117104136D01*
X118312191Y-117105035D01*
X118312196Y-117105035D01*
X118312199Y-117105036D01*
X118312202Y-117105036D01*
X118435611Y-117116268D01*
X118495394Y-117115851D01*
X118555255Y-117116269D01*
X118564416Y-117115370D01*
X118564418Y-117115370D01*
X118564426Y-117115369D01*
X118687677Y-117102414D01*
X118746274Y-117090385D01*
X118805028Y-117079178D01*
X118813850Y-117076514D01*
X118932238Y-117039867D01*
X118987368Y-117016692D01*
X119042847Y-116994278D01*
X119050983Y-116989951D01*
X119159998Y-116931008D01*
X119209582Y-116897563D01*
X119259645Y-116864803D01*
X119266786Y-116858978D01*
X119362276Y-116779982D01*
X119404430Y-116737533D01*
X119447165Y-116695685D01*
X119453039Y-116688584D01*
X119531367Y-116592545D01*
X119564472Y-116542719D01*
X119598267Y-116493362D01*
X119602650Y-116485256D01*
X119660832Y-116375833D01*
X119683621Y-116320541D01*
X119707193Y-116265545D01*
X119709918Y-116256742D01*
X119745737Y-116138101D01*
X119757357Y-116079417D01*
X119769794Y-116020906D01*
X119770756Y-116011750D01*
X119770757Y-116011745D01*
X119770757Y-116011741D01*
X119782850Y-115888403D01*
X119782850Y-115888402D01*
X119786000Y-115856419D01*
X119786000Y-114625605D01*
X122362392Y-112247397D01*
X122445450Y-112187952D01*
X122533167Y-112153656D01*
X122634517Y-112141000D01*
X131004039Y-112141000D01*
X131021559Y-112139786D01*
X131160378Y-112120451D01*
X131194084Y-112110876D01*
X131322336Y-112054342D01*
X131352143Y-112035920D01*
X131460065Y-111946490D01*
X131483703Y-111920625D01*
X131563079Y-111805109D01*
X131572000Y-111789981D01*
X133065246Y-108803488D01*
X133129622Y-108709801D01*
X133210302Y-108642945D01*
X133306182Y-108600681D01*
X133418765Y-108585000D01*
X137770000Y-108585000D01*
X137770001Y-120015000D01*
X137770001Y-120015000D01*
G37*
X137770001Y-120015000D02*
X133418765Y-120015000D01*
X133306182Y-119999319D01*
X133210302Y-119957055D01*
X133129622Y-119890199D01*
X133065246Y-119796512D01*
X131572000Y-116810019D01*
X131563079Y-116794891D01*
X131483703Y-116679375D01*
X131460065Y-116653510D01*
X131352143Y-116564080D01*
X131322336Y-116545658D01*
X131194084Y-116489124D01*
X131160378Y-116479549D01*
X131021559Y-116460214D01*
X131004039Y-116459000D01*
X124416420Y-116459000D01*
X124399843Y-116460087D01*
X124268363Y-116477397D01*
X124236340Y-116485977D01*
X124113820Y-116536726D01*
X124085107Y-116553303D01*
X123979897Y-116634034D01*
X123967407Y-116644987D01*
X123756987Y-116855407D01*
X123746034Y-116867897D01*
X123665303Y-116973107D01*
X123648726Y-117001820D01*
X123597977Y-117124340D01*
X123589397Y-117156363D01*
X123572087Y-117287843D01*
X123571000Y-117304420D01*
X123571000Y-117391580D01*
X123572087Y-117408157D01*
X123589397Y-117539637D01*
X123597977Y-117571660D01*
X123648726Y-117694180D01*
X123665303Y-117722893D01*
X123746034Y-117828103D01*
X123756987Y-117840593D01*
X125231523Y-119315129D01*
X125297007Y-119400469D01*
X125334960Y-119492095D01*
X125349000Y-119598741D01*
X125349000Y-120844039D01*
X125350214Y-120861559D01*
X125369549Y-121000378D01*
X125379124Y-121034084D01*
X125435658Y-121162336D01*
X125454080Y-121192143D01*
X125543510Y-121300065D01*
X125569375Y-121323703D01*
X125684891Y-121403079D01*
X125700019Y-121412000D01*
X128686512Y-122905246D01*
X128780199Y-122969622D01*
X128847055Y-123050302D01*
X128889319Y-123146182D01*
X128905000Y-123258765D01*
X128905000Y-127610000D01*
X117475000Y-127610000D01*
X117475000Y-123258765D01*
X117490681Y-123146182D01*
X117532945Y-123050302D01*
X117599801Y-122969622D01*
X117693488Y-122905246D01*
X120225611Y-121639184D01*
X120240738Y-121630264D01*
X120334194Y-121566048D01*
X120360061Y-121542408D01*
X120432410Y-121455097D01*
X120450831Y-121425291D01*
X120496568Y-121321533D01*
X120506143Y-121287827D01*
X120521786Y-121175520D01*
X120523000Y-121158000D01*
X120523000Y-121114420D01*
X120521913Y-121097843D01*
X120504603Y-120966363D01*
X120496023Y-120934340D01*
X120445274Y-120811820D01*
X120428697Y-120783107D01*
X120347966Y-120677897D01*
X120337013Y-120665407D01*
X119370477Y-119698871D01*
X119363874Y-119690266D01*
X119409708Y-119633262D01*
X119442471Y-119583194D01*
X119475913Y-119533616D01*
X119480239Y-119525480D01*
X119537656Y-119415652D01*
X119560074Y-119360164D01*
X119583247Y-119305039D01*
X119585910Y-119296217D01*
X119620900Y-119177329D01*
X119632107Y-119118578D01*
X119644136Y-119059981D01*
X119645035Y-119050809D01*
X119656268Y-118927389D01*
X119655851Y-118867606D01*
X119656269Y-118807745D01*
X119655369Y-118798574D01*
X119642414Y-118675323D01*
X119630387Y-118616733D01*
X119619178Y-118557971D01*
X119616514Y-118549149D01*
X119579867Y-118430762D01*
X119556692Y-118375632D01*
X119534278Y-118320153D01*
X119529951Y-118312017D01*
X119471007Y-118203002D01*
X119437565Y-118153422D01*
X119404803Y-118103355D01*
X119398978Y-118096214D01*
X119319982Y-118000724D01*
X119277566Y-117958603D01*
X119235684Y-117915834D01*
X119228584Y-117909961D01*
X119132545Y-117831633D01*
X119082703Y-117798518D01*
X119033362Y-117764733D01*
X119025256Y-117760350D01*
X118915832Y-117702168D01*
X118860554Y-117679384D01*
X118805545Y-117655807D01*
X118796741Y-117653082D01*
X118678101Y-117617262D01*
X118619372Y-117605633D01*
X118560905Y-117593206D01*
X118551747Y-117592244D01*
X118551744Y-117592243D01*
X118551741Y-117592243D01*
X118428402Y-117580150D01*
X118396419Y-117577000D01*
X112141000Y-117577000D01*
X112141000Y-115070321D01*
X112155040Y-114963675D01*
X112192993Y-114872049D01*
X112253368Y-114793368D01*
X112332049Y-114732993D01*
X112423675Y-114695040D01*
X112530321Y-114681000D01*
X117196001Y-114681000D01*
X117196001Y-115856419D01*
X117199211Y-115889012D01*
X117199211Y-115897269D01*
X117200175Y-115906433D01*
X117213989Y-116029591D01*
X117226418Y-116088065D01*
X117238045Y-116146786D01*
X117240771Y-116155589D01*
X117278244Y-116273718D01*
X117301793Y-116328662D01*
X117324604Y-116384005D01*
X117328987Y-116392111D01*
X117388691Y-116500711D01*
X117422468Y-116550041D01*
X117455590Y-116599894D01*
X117461464Y-116606995D01*
X117541125Y-116701930D01*
X117583838Y-116743757D01*
X117626013Y-116786228D01*
X117633155Y-116792052D01*
X117729738Y-116869708D01*
X117779806Y-116902471D01*
X117829384Y-116935913D01*
X117837520Y-116940239D01*
X117947348Y-116997656D01*
X118002836Y-117020074D01*
X118057961Y-117043247D01*
X118066777Y-117045908D01*
X118066779Y-117045909D01*
X118066781Y-117045909D01*
X118066783Y-117045910D01*
X118185671Y-117080900D01*
X118244422Y-117092107D01*
X118303019Y-117104136D01*
X118312191Y-117105035D01*
X118312196Y-117105035D01*
X118312199Y-117105036D01*
X118312202Y-117105036D01*
X118435611Y-117116268D01*
X118495394Y-117115851D01*
X118555255Y-117116269D01*
X118564416Y-117115370D01*
X118564418Y-117115370D01*
X118564426Y-117115369D01*
X118687677Y-117102414D01*
X118746274Y-117090385D01*
X118805028Y-117079178D01*
X118813850Y-117076514D01*
X118932238Y-117039867D01*
X118987368Y-117016692D01*
X119042847Y-116994278D01*
X119050983Y-116989951D01*
X119159998Y-116931008D01*
X119209582Y-116897563D01*
X119259645Y-116864803D01*
X119266786Y-116858978D01*
X119362276Y-116779982D01*
X119404430Y-116737533D01*
X119447165Y-116695685D01*
X119453039Y-116688584D01*
X119531367Y-116592545D01*
X119564472Y-116542719D01*
X119598267Y-116493362D01*
X119602650Y-116485256D01*
X119660832Y-116375833D01*
X119683621Y-116320541D01*
X119707193Y-116265545D01*
X119709918Y-116256742D01*
X119745737Y-116138101D01*
X119757357Y-116079417D01*
X119769794Y-116020906D01*
X119770756Y-116011750D01*
X119770757Y-116011745D01*
X119770757Y-116011741D01*
X119782850Y-115888403D01*
X119782850Y-115888402D01*
X119786000Y-115856419D01*
X119786000Y-114625605D01*
X122362392Y-112247397D01*
X122445450Y-112187952D01*
X122533167Y-112153656D01*
X122634517Y-112141000D01*
X131004039Y-112141000D01*
X131021559Y-112139786D01*
X131160378Y-112120451D01*
X131194084Y-112110876D01*
X131322336Y-112054342D01*
X131352143Y-112035920D01*
X131460065Y-111946490D01*
X131483703Y-111920625D01*
X131563079Y-111805109D01*
X131572000Y-111789981D01*
X133065246Y-108803488D01*
X133129622Y-108709801D01*
X133210302Y-108642945D01*
X133306182Y-108600681D01*
X133418765Y-108585000D01*
X137770000Y-108585000D01*
X137770001Y-120015000D01*
M02*
