G04 #@! TF.GenerationSoftware,KiCad,Pcbnew,5.1.4-e60b266~84~ubuntu18.04.1*
G04 #@! TF.CreationDate,2019-08-19T13:29:57+01:00*
G04 #@! TF.ProjectId,vctcxo-ref,76637463-786f-42d7-9265-662e6b696361,rev?*
G04 #@! TF.SameCoordinates,Original*
G04 #@! TF.FileFunction,Paste,Top*
G04 #@! TF.FilePolarity,Positive*
%FSLAX46Y46*%
G04 Gerber Fmt 4.6, Leading zero omitted, Abs format (unit mm)*
G04 Created by KiCad (PCBNEW 5.1.4-e60b266~84~ubuntu18.04.1) date 2019-08-19 13:29:57*
%MOMM*%
%LPD*%
G04 APERTURE LIST*
%ADD10R,1.000000X1.500000*%
%ADD11R,1.000000X0.950000*%
%ADD12R,0.620000X0.620000*%
%ADD13R,0.950000X1.000000*%
%ADD14R,1.100000X0.600000*%
%ADD15R,2.300000X5.000000*%
%ADD16R,2.400000X5.000000*%
%ADD17R,5.000000X2.300000*%
%ADD18R,5.000000X2.400000*%
G04 APERTURE END LIST*
D10*
X112746000Y-113289000D03*
X112746000Y-117089000D03*
X115346000Y-117089000D03*
X115346000Y-113289000D03*
D11*
X101155500Y-114008000D03*
X101155500Y-115608000D03*
D12*
X105796500Y-117856000D03*
X104896500Y-117856000D03*
D13*
X106019500Y-112903000D03*
X104419500Y-112903000D03*
D11*
X116967000Y-115290500D03*
X116967000Y-113690500D03*
X111125000Y-116751000D03*
X111125000Y-115151000D03*
D14*
X103030500Y-114493000D03*
X103030500Y-115443000D03*
X103030500Y-116393000D03*
X105630500Y-116393000D03*
X105630500Y-114493000D03*
D15*
X123190000Y-125730000D03*
D16*
X127565000Y-125730000D03*
X118815000Y-125730000D03*
D13*
X132943500Y-114300000D03*
X131343500Y-114300000D03*
D11*
X123190000Y-121183500D03*
X123190000Y-122783500D03*
D17*
X135890000Y-114300000D03*
D18*
X135890000Y-109925000D03*
X135890000Y-118675000D03*
D13*
X103848000Y-101854000D03*
X105448000Y-101854000D03*
X103848000Y-104140000D03*
X105448000Y-104140000D03*
D11*
X96012000Y-115786000D03*
X96012000Y-117386000D03*
X99568000Y-114008000D03*
X99568000Y-115608000D03*
D13*
X96228000Y-113792000D03*
X97828000Y-113792000D03*
D11*
X97790000Y-115786000D03*
X97790000Y-117386000D03*
M02*
