M48
; DRILL file {KiCad 5.1.4-e60b266~84~ubuntu18.04.1} date Tue 20 Aug 2019 22:32:00 BST
; FORMAT={-:-/ absolute / inch / decimal}
; #@! TF.CreationDate,2019-08-20T22:32:00+01:00
; #@! TF.GenerationSoftware,Kicad,Pcbnew,5.1.4-e60b266~84~ubuntu18.04.1
; #@! TF.FileFunction,Plated,1,2,PTH
FMAT,2
INCH
T1C0.0157
T2C0.0276
T3C0.0394
%
G90
G05
T1
X3.78Y-4.68
X3.975Y-4.42
X3.975Y-4.615
X3.975Y-4.67
X4.0525Y-4.46
X4.0525Y-4.625
X4.08Y-4.675
X4.11Y-4.545
X4.235Y-4.271
X4.235Y-4.42
X4.235Y-4.485
X4.235Y-4.55
X4.235Y-4.61
X4.235Y-4.67
X4.44Y-4.53
X4.49Y-4.53
X4.53Y-4.29
X4.54Y-4.53
X4.715Y-4.665
X4.725Y-4.565
X4.78Y-4.51
X4.78Y-4.73
X4.795Y-4.805
X4.8Y-4.62
X4.84Y-4.455
X4.85Y-4.67
X4.875Y-4.545
X4.9Y-4.735
X4.905Y-4.805
X4.94Y-4.455
X5.005Y-4.545
X5.035Y-4.455
X5.13Y-4.455
X5.13Y-4.545
X5.205Y-4.44
X5.205Y-4.56
T2
X3.8Y-4.2
X3.9Y-4.1
X3.7Y-4.1
T3
X3.34Y-4.44
X3.34Y-4.54
X3.62Y-4.91
X3.72Y-4.91
T0
M30
